<svg width="21" height="21" viewBox="0 0 21 21" fill="none" xmlns="http://www.w3.org/2000/svg">
<path d="M20.5266 10.5432C20.5266 10.0544 20.3599 9.64324 20.0266 9.30991C19.6933 8.97658 19.2822 8.80991 18.7933 8.80991H3.65994V3.40991C3.65994 2.96547 3.8155 2.58769 4.12661 2.27658C4.34883 2.05435 4.60439 1.92102 4.89328 1.87658C5.18217 1.83213 5.48217 1.85435 5.79328 1.94324C5.39328 2.56546 5.23772 3.25435 5.32661 4.00991C5.4155 4.76546 5.72661 5.40991 6.25994 5.94324L6.39328 6.14324C6.52661 6.23213 6.67106 6.27658 6.82661 6.27658C6.98217 6.27658 7.10439 6.23213 7.19328 6.14324L10.9933 2.34324C11.1266 2.20991 11.1933 2.06546 11.1933 1.90991C11.1933 1.75435 11.1266 1.60991 10.9933 1.47658L10.8599 1.34324C10.2822 0.765465 9.58217 0.454353 8.75994 0.409908C7.93772 0.365465 7.2155 0.587687 6.59328 1.07658C6.05995 0.765465 5.48217 0.643242 4.85994 0.709909C4.23772 0.776575 3.70439 1.03213 3.25994 1.47658C2.72661 2.00991 2.45994 2.65435 2.45994 3.40991V8.80991H2.25994C1.77106 8.80991 1.35994 8.97658 1.02661 9.30991C0.693278 9.64324 0.526611 10.0544 0.526611 10.5432C0.526611 10.9432 0.637722 11.2877 0.859945 11.5766C1.08217 11.8655 1.34883 12.0766 1.65994 12.2099V13.4766C1.65994 14.5432 1.94883 15.521 2.52661 16.4099C3.10439 17.2988 3.83772 17.9877 4.72661 18.4766L4.19328 19.5432C4.10439 19.721 4.09328 19.8766 4.15994 20.0099C4.22661 20.1432 4.32661 20.2544 4.45994 20.3432C4.59328 20.4321 4.73772 20.4432 4.89328 20.3766C5.04883 20.3099 5.17106 20.2099 5.25994 20.0766L5.85994 18.8766C6.30439 18.9655 6.77106 19.0099 7.25994 19.0099H13.7933C14.2822 19.0099 14.7488 18.9655 15.1933 18.8766L15.7933 20.0766C15.8822 20.2099 16.0044 20.3099 16.1599 20.3766C16.3155 20.4432 16.4599 20.4321 16.5933 20.3432C16.7266 20.2544 16.8266 20.1432 16.8933 20.0099C16.9599 19.8766 16.9488 19.721 16.8599 19.5432L16.3266 18.4766C17.2155 17.9877 17.9488 17.2988 18.5266 16.4099C19.1044 15.521 19.3933 14.5432 19.3933 13.4766V12.2099C19.7044 12.0766 19.9711 11.8655 20.1933 11.5766C20.4155 11.2877 20.5266 10.9432 20.5266 10.5432ZM9.72661 1.94324L6.85994 4.87658C6.54883 4.43213 6.4155 3.96547 6.45995 3.47658C6.50439 2.98769 6.70439 2.56546 7.05995 2.20991C7.4155 1.85435 7.84883 1.65435 8.35995 1.60991C8.87106 1.56546 9.32661 1.67658 9.72661 1.94324ZM2.25994 10.0099H18.7933C18.9266 10.0099 19.0488 10.0655 19.1599 10.1766C19.2711 10.2877 19.3266 10.421 19.3266 10.5766C19.3266 10.7321 19.2711 10.8655 19.1599 10.9766C19.0488 11.0877 18.9266 11.1432 18.7933 11.1432H2.25994C2.12661 11.1432 2.00439 11.0877 1.89328 10.9766C1.78217 10.8655 1.72661 10.7321 1.72661 10.5766C1.72661 10.421 1.78217 10.2877 1.89328 10.1766C2.00439 10.0655 2.12661 10.0099 2.25994 10.0099ZM18.1933 13.4766C18.1933 14.2766 17.9933 15.0099 17.5933 15.6766C17.1933 16.3432 16.6599 16.8766 15.9933 17.2766C15.3266 17.6766 14.5933 17.8766 13.7933 17.8766H7.25994C6.45995 17.8766 5.72661 17.6766 5.05995 17.2766C4.39328 16.8766 3.85994 16.3432 3.45994 15.6766C3.05994 15.0099 2.85994 14.2766 2.85994 13.4766V12.3432H18.1933V13.4766ZM8.99328 6.34324C8.99328 6.52102 9.04883 6.66547 9.15995 6.77658C9.27106 6.88769 9.40439 6.94324 9.55995 6.94324C9.7155 6.94324 9.84883 6.88769 9.95994 6.77658C10.0711 6.66547 10.1266 6.52102 10.1266 6.34324C10.1266 6.16547 10.0711 6.02102 9.95994 5.90991C9.84883 5.7988 9.7155 5.74324 9.55995 5.74324C9.40439 5.74324 9.27106 5.7988 9.15995 5.90991C9.04883 6.02102 8.99328 6.16547 8.99328 6.34324ZM10.6599 4.67658C10.6599 4.85435 10.7155 4.9988 10.8266 5.10991C10.9377 5.22102 11.0711 5.27658 11.2266 5.27658C11.3822 5.27658 11.5155 5.22102 11.6266 5.10991C11.7377 4.9988 11.7933 4.85435 11.7933 4.67658C11.7933 4.4988 11.7377 4.35435 11.6266 4.24324C11.5155 4.13213 11.3822 4.07658 11.2266 4.07658C11.0711 4.07658 10.9377 4.13213 10.8266 4.24324C10.7155 4.35435 10.6599 4.4988 10.6599 4.67658ZM11.0599 6.74324C11.0599 6.87658 11.1155 7.00991 11.2266 7.14324C11.3377 7.27658 11.4711 7.34324 11.6266 7.34324C11.7822 7.34324 11.9155 7.27658 12.0266 7.14324C12.1377 7.00991 12.1933 6.86547 12.1933 6.70991C12.1933 6.55435 12.1377 6.42102 12.0266 6.30991C11.9155 6.1988 11.7822 6.14324 11.6266 6.14324C11.4711 6.14324 11.3377 6.1988 11.2266 6.30991C11.1155 6.42102 11.0599 6.56546 11.0599 6.74324Z" fill="#1A1A1A"/>
</svg>
