<svg width="21" height="15" viewBox="0 0 21 15" fill="none" xmlns="http://www.w3.org/2000/svg">
<path d="M18.11 3.67661H9.30999C8.86555 3.67661 8.44333 3.80994 8.04333 4.07661C7.95444 3.40994 7.67666 2.8655 7.20999 2.44328C6.74333 2.02106 6.19888 1.80994 5.57666 1.80994C5.08777 1.80994 4.64333 1.92105 4.24333 2.14328V1.14328C4.24333 0.9655 4.18777 0.821055 4.07666 0.709944C3.96555 0.598833 3.8211 0.543278 3.64333 0.543278H1.17666C0.998882 0.543278 0.854438 0.598833 0.743327 0.709944C0.632216 0.821055 0.57666 0.9655 0.57666 1.14328V13.6766C0.57666 13.8544 0.632216 13.9988 0.743327 14.1099C0.854438 14.2211 0.998882 14.2766 1.17666 14.2766H3.64333C3.8211 14.2766 3.96555 14.2211 4.07666 14.1099C4.18777 13.9988 4.24333 13.8544 4.24333 13.6766V11.7433H16.91V13.6766C16.91 13.8544 16.9655 13.9988 17.0767 14.1099C17.1878 14.2211 17.3322 14.2766 17.51 14.2766H19.9767C20.1544 14.2766 20.2989 14.2211 20.41 14.1099C20.5211 13.9988 20.5767 13.8544 20.5767 13.6766V6.14328C20.5767 5.47661 20.3322 4.89883 19.8433 4.40994C19.3544 3.92105 18.7767 3.67661 18.11 3.67661ZM5.57666 2.94328C5.93222 2.94328 6.23222 3.07661 6.47666 3.34328C6.72111 3.60994 6.84333 3.92105 6.84333 4.27661C6.84333 4.63217 6.72111 4.93217 6.47666 5.17661C6.23222 5.42105 5.93222 5.54328 5.57666 5.54328C5.2211 5.54328 4.90999 5.42105 4.64333 5.17661C4.37666 4.93217 4.24333 4.63217 4.24333 4.27661C4.24333 3.92105 4.37666 3.60994 4.64333 3.34328C4.90999 3.07661 5.2211 2.94328 5.57666 2.94328ZM4.24333 6.34328C4.64333 6.60994 5.07666 6.74328 5.54333 6.74328C6.00999 6.74328 6.44333 6.60994 6.84333 6.34328V8.07661H4.24333V6.34328ZM19.3767 13.0766H18.0433V11.1433C18.0433 11.0099 17.9878 10.8877 17.8767 10.7766C17.7656 10.6655 17.6433 10.6099 17.51 10.6099H3.64333C3.50999 10.6099 3.38777 10.6655 3.27666 10.7766C3.16555 10.8877 3.10999 11.0099 3.10999 11.1433V13.0766H1.77666V1.74328H3.10999V8.67661C3.10999 8.80994 3.16555 8.94328 3.27666 9.07661C3.38777 9.20994 3.50999 9.27661 3.64333 9.27661H19.3767V13.0766ZM19.3767 8.07661H8.04333V6.14328C8.04333 5.78772 8.16555 5.48772 8.40999 5.24328C8.65444 4.99883 8.95444 4.87661 9.30999 4.87661H18.11C18.4655 4.87661 18.7656 4.99883 19.01 5.24328C19.2544 5.48772 19.3767 5.78772 19.3767 6.14328V8.07661Z" fill="#1A1A1A"/>
</svg>
