<svg width="21" height="21" viewBox="0 0 21 21" fill="none" xmlns="http://www.w3.org/2000/svg">
<path d="M16.3432 19.2099H13.9432C13.8099 19.2099 13.6766 19.2766 13.5432 19.4099C13.4099 19.5432 13.3432 19.6877 13.3432 19.8432C13.3432 19.9988 13.4099 20.1321 13.5432 20.2432C13.6766 20.3544 13.8099 20.4099 13.9432 20.4099H16.3432C16.521 20.4099 16.6655 20.3544 16.7766 20.2432C16.8877 20.1321 16.9432 19.9988 16.9432 19.8432C16.9432 19.6877 16.8877 19.5432 16.7766 19.4099C16.6655 19.2766 16.521 19.2099 16.3432 19.2099ZM11.6099 19.2099H9.27656C9.09879 19.2099 8.95434 19.2766 8.84323 19.4099C8.73212 19.5432 8.67656 19.6877 8.67656 19.8432C8.67656 19.9988 8.73212 20.1321 8.84323 20.2432C8.95434 20.3544 9.09879 20.4099 9.27656 20.4099H11.6099C11.7877 20.4099 11.9321 20.3544 12.0432 20.2432C12.1543 20.1321 12.2099 19.9988 12.2099 19.8432C12.2099 19.6877 12.1543 19.5432 12.0432 19.4099C11.9321 19.2766 11.7877 19.2099 11.6099 19.2099ZM19.8766 8.60991C19.7432 8.60991 19.6099 8.66547 19.4766 8.77658C19.3432 8.88769 19.2766 9.03213 19.2766 9.20991V11.5432C19.2766 11.721 19.3432 11.8655 19.4766 11.9766C19.6099 12.0877 19.7543 12.1432 19.9099 12.1432C20.0655 12.1432 20.1988 12.0877 20.3099 11.9766C20.421 11.8655 20.4766 11.721 20.4766 11.5432V9.20991C20.4766 9.03213 20.421 8.88769 20.3099 8.77658C20.1988 8.66547 20.0543 8.60991 19.8766 8.60991ZM19.8766 13.2766C19.7432 13.2766 19.6099 13.3432 19.4766 13.4766C19.3432 13.6099 19.2766 13.7432 19.2766 13.8766V16.2099C19.2766 16.3877 19.3432 16.5321 19.4766 16.6432C19.6099 16.7544 19.7543 16.8099 19.9099 16.8099C20.0655 16.8099 20.1988 16.7544 20.3099 16.6432C20.421 16.5321 20.4766 16.3877 20.4766 16.2099V13.8766C20.4766 13.7432 20.421 13.6099 20.3099 13.4766C20.1988 13.3432 20.0543 13.2766 19.8766 13.2766ZM6.94323 19.2099H6.34323V18.6766C6.34323 18.4988 6.28767 18.3544 6.17656 18.2432C6.06545 18.1321 5.92101 18.0766 5.74323 18.0766C5.56545 18.0766 5.42101 18.1321 5.3099 18.2432C5.19878 18.3544 5.14323 18.4988 5.14323 18.6766V19.8099C5.14323 19.9877 5.19878 20.1321 5.3099 20.2432C5.42101 20.3544 5.56545 20.4099 5.74323 20.4099H6.94323C7.07656 20.4099 7.19879 20.3544 7.3099 20.2432C7.42101 20.1321 7.47656 19.9988 7.47656 19.8432C7.47656 19.6877 7.42101 19.5432 7.3099 19.4099C7.19879 19.2766 7.07656 19.2099 6.94323 19.2099ZM19.8766 5.07658H18.7432C18.5655 5.07658 18.421 5.13213 18.3099 5.24325C18.1988 5.35436 18.1432 5.4988 18.1432 5.67658C18.1432 5.85436 18.1988 5.9988 18.3099 6.10991C18.421 6.22102 18.5655 6.27658 18.7432 6.27658H19.2766V6.87658C19.2766 7.00991 19.3432 7.13213 19.4766 7.24325C19.6099 7.35436 19.7543 7.40991 19.9099 7.40991C20.0655 7.40991 20.1988 7.35436 20.3099 7.24325C20.421 7.13213 20.4766 7.00991 20.4766 6.87658V5.67658C20.4766 5.4988 20.421 5.35436 20.3099 5.24325C20.1988 5.13213 20.0543 5.07658 19.8766 5.07658ZM19.8766 18.0766C19.7432 18.0766 19.6099 18.1321 19.4766 18.2432C19.3432 18.3544 19.2766 18.4988 19.2766 18.6766V19.2099H18.7432C18.5655 19.2099 18.421 19.2766 18.3099 19.4099C18.1988 19.5432 18.1432 19.6877 18.1432 19.8432C18.1432 19.9988 18.1988 20.1321 18.3099 20.2432C18.421 20.3544 18.5655 20.4099 18.7432 20.4099H19.8766C20.0543 20.4099 20.1988 20.3544 20.3099 20.2432C20.421 20.1321 20.4766 19.9877 20.4766 19.8099V18.6766C20.4766 18.4988 20.421 18.3544 20.3099 18.2432C20.1988 18.1321 20.0543 18.0766 19.8766 18.0766ZM16.3432 5.07658H15.7432V1.00991C15.7432 0.832134 15.6766 0.687689 15.5432 0.576578C15.4099 0.465467 15.2766 0.40991 15.1432 0.40991H1.07656C0.898785 0.40991 0.75434 0.465467 0.643229 0.576578C0.532118 0.687689 0.476562 0.832134 0.476562 1.00991V15.0766C0.476562 15.2099 0.532118 15.3432 0.643229 15.4766C0.75434 15.6099 0.898785 15.6766 1.07656 15.6766H5.14323V16.2099C5.14323 16.3877 5.19878 16.5321 5.3099 16.6432C5.42101 16.7544 5.56545 16.8099 5.74323 16.8099C5.92101 16.8099 6.06545 16.7544 6.17656 16.6432C6.28767 16.5321 6.34323 16.3877 6.34323 16.2099V6.27658H16.3432C16.521 6.27658 16.6655 6.22102 16.7766 6.10991C16.8877 5.9988 16.9432 5.85436 16.9432 5.67658C16.9432 5.4988 16.8877 5.35436 16.7766 5.24325C16.6655 5.13213 16.521 5.07658 16.3432 5.07658ZM14.5432 5.07658H5.74323C5.56545 5.07658 5.42101 5.13213 5.3099 5.24325C5.19878 5.35436 5.14323 5.4988 5.14323 5.67658V14.4766H1.67656V1.60991H14.5432V5.07658Z" fill="#1A1A1A"/>
</svg>
